HIERARCHY
ROOT Hips
{
 OFFSET 0.000000 0.000000 0.000000
 CHANNELS 6 Xposition Yposition Zposition Yrotation Xrotation Zrotation
 JOINT Chest
 {
  OFFSET 0.000000 9.585900 0.002600
  CHANNELS 3 Yrotation Xrotation Zrotation
  JOINT Chest2
  {
   OFFSET 0.000000 9.601200 -0.005300
   CHANNELS 3 Yrotation Xrotation Zrotation
   JOINT Chest3
   {
    OFFSET 0.000000 9.561800 0.000000
    CHANNELS 3 Yrotation Xrotation Zrotation
    JOINT Chest4
    {
     OFFSET 0.000000 9.552100 0.000000
     CHANNELS 3 Yrotation Xrotation Zrotation
     JOINT Neck
     {
      OFFSET 0.000000 14.453000 0.000000
      CHANNELS 3 Yrotation Xrotation Zrotation
      JOINT Head
      {
       OFFSET 0.000000 8.936500 -0.011300
       CHANNELS 3 Yrotation Xrotation Zrotation
       End Site
       {
        OFFSET 0.000000 17.073600 -0.006000
       }
      }
     }
     JOINT RightCollar
     {
      OFFSET -2.921100 9.558500 0.000000
      CHANNELS 3 Yrotation Xrotation Zrotation
      JOINT RightShoulder
      {
       OFFSET -13.519700 0.000000 0.000000
       CHANNELS 3 Yrotation Xrotation Zrotation
       JOINT RightElbow
       {
        OFFSET 0.000000 -29.696600 0.000000
        CHANNELS 3 Yrotation Xrotation Zrotation
        JOINT RightWrist
        {
         OFFSET 0.000000 -24.004700 0.000000
         CHANNELS 3 Yrotation Xrotation Zrotation
         End Site
         {
          OFFSET 0.000000 -17.728500 0.000000
         }
        }
       }
      }
     }
     JOINT LeftCollar
     {
      OFFSET 2.921100 9.558500 0.000000
      CHANNELS 3 Yrotation Xrotation Zrotation
      JOINT LeftShoulder
      {
       OFFSET 13.519700 0.000000 0.000000
       CHANNELS 3 Yrotation Xrotation Zrotation
       JOINT LeftElbow
       {
        OFFSET 0.000000 -29.696600 0.000000
        CHANNELS 3 Yrotation Xrotation Zrotation
        JOINT LeftWrist
        {
         OFFSET 0.000000 -24.004700 0.000000
         CHANNELS 3 Yrotation Xrotation Zrotation
         End Site
         {
          OFFSET 0.000000 -17.728500 0.000000
         }
        }
       }
      }
     }
    }
   }
  }
 }
 JOINT RightHip
 {
  OFFSET -7.771700 -0.012900 -0.001300
  CHANNELS 3 Yrotation Xrotation Zrotation
  JOINT RightKnee
  {
   OFFSET 0.000000 -40.869800 0.001200
   CHANNELS 3 Yrotation Xrotation Zrotation
   JOINT RightAnkle
   {
    OFFSET 0.000000 -39.717900 0.002100
    CHANNELS 3 Yrotation Xrotation Zrotation
    JOINT RightToe
    {
     OFFSET 0.000000 -4.965400 11.033500
     CHANNELS 3 Yrotation Xrotation Zrotation
     End Site
     {
      OFFSET 0.000000 -1.423100 5.872300
     }
    }
   }
  }
 }
 JOINT LeftHip
 {
  OFFSET 7.771700 -0.012900 -0.001300
  CHANNELS 3 Yrotation Xrotation Zrotation
  JOINT LeftKnee
  {
   OFFSET 0.000000 -40.869800 0.001200
   CHANNELS 3 Yrotation Xrotation Zrotation
   JOINT LeftAnkle
   {
    OFFSET 0.000000 -39.717900 0.002100
    CHANNELS 3 Yrotation Xrotation Zrotation
    JOINT LeftToe
    {
     OFFSET 0.000000 -4.965400 11.033500
     CHANNELS 3 Yrotation Xrotation Zrotation
     End Site
     {
      OFFSET 0.000000 -1.423100 5.872300
     }
    }
   }
  }
 }
}
MOTION
Frames: 16
Frame Time: 0.008333
0.000000 85.388000 0.000000 0.000000 -5.767877 0.000000 0.000000 11.653817 0.000000 0.000000 -5.885947 0.000000 0.000000 -0.000000 0.000000 0.000000 -0.000000 0.000000 0.000000 12.528835 0.000000 0.000000 0.711642 0.000000 0.000000 -0.000000 0.000000 0.000000 0.000000 -90.000000 0.000000 -2.309062 0.000000 0.000000 2.309062 0.000000 0.000000 -0.000000 0.000000 0.000000 -0.000000 90.000000 0.000000 -2.309062 0.000000 0.000000 2.309062 0.000000 0.000000 8.520406 0.000000 0.000000 1.905762 0.000000 -0.000000 -4.658285 0.000000 0.000000 -0.000000 0.000000 0.000000 8.520406 0.000000 0.000000 1.905762 0.000000 -0.000000 -4.658285 0.000000 0.000000 -0.000000 0.000000
-5.224051 55.225517 30.479900 176.204594 -28.000399 -10.337969 0.999937 14.240431 6.066112 0.338309 8.115917 2.513409 0.477845 10.121541 3.144469 0.341766 8.122612 2.515037 -0.449704 23.931681 0.453523 -0.590937 0.052299 0.580324 0.697667 4.723888 -1.773918 -15.572412 -6.756107 4.433887 117.597283 -81.330173 -100.518101 9.913482 -11.254761 -15.641554 -9.571244 2.401942 -3.961589 4.666592 -0.946512 0.897929 -111.018623 -71.238718 115.147662 11.459593 -17.995307 -1.082195 -19.001630 -38.304666 9.875291 29.437557 85.941389 25.437117 0.425427 -16.140127 0.481858 -0.028076 0.497858 -0.038746 -15.265831 -50.103796 19.130548 172.802893 78.813235 168.612163 -1.598880 -17.041141 1.609590 -0.696443 -2.126910 -0.323563
-5.221332 55.226737 30.484657 176.201300 -28.032153 -10.347943 1.002691 14.247963 6.068530 0.336593 8.092530 2.500081 0.486671 10.158450 3.158702 0.343795 8.128441 2.517780 -0.440291 23.911331 0.440307 -0.554123 0.000543 0.549128 0.698372 4.713608 -1.776018 -15.580717 -6.762071 4.452586 117.437922 -81.192743 -100.372380 9.932411 -11.261576 -15.624821 -9.583487 2.394254 -3.970887 4.632549 -0.962607 0.894156 -110.884383 -71.197161 115.048657 11.482812 -18.009222 -1.059234 -19.002378 -38.274224 9.876493 29.451757 85.931796 25.462490 0.427582 -16.119242 0.470027 -0.025795 0.492524 -0.039961 -15.234727 -50.079599 19.117598 172.754718 78.809377 168.578847 -1.601637 -17.030955 1.615179 -0.703070 -2.136413 -0.322994
-5.218935 55.226857 30.491699 176.196142 -28.055761 -10.355771 0.998233 14.215136 6.058200 0.346314 8.135918 2.512067 0.487057 10.160618 3.157623 0.341509 8.119868 2.508508 -0.421388 23.875710 0.422627 -0.545932 0.022859 0.565033 0.704753 4.718186 -1.767439 -15.587010 -6.757377 4.463806 117.359215 -81.126115 -100.298025 10.002203 -11.285150 -15.614623 -9.590688 2.399478 -3.970657 4.619454 -0.966862 0.891326 -110.892974 -71.169290 115.074482 11.488422 -17.985198 -1.042863 -19.012388 -38.251872 9.889039 29.443237 85.922558 25.455032 0.429456 -16.101315 0.458046 -0.024573 0.495515 -0.035632 -15.223625 -50.060383 19.117983 172.719467 78.806992 168.547713 -1.602770 -17.023840 1.617739 -0.708323 -2.141155 -0.322220
-5.217025 55.226454 30.499296 176.192028 -28.078996 -10.361609 1.002671 14.223013 6.060378 0.348262 8.136974 2.510532 0.485373 10.150360 3.147884 0.342453 8.122641 2.505746 -0.404141 23.852335 0.416080 -0.530551 0.009799 0.563420 0.707690 4.675527 -1.767532 -15.589165 -6.703430 4.470957 117.277883 -81.064686 -100.219880 10.028222 -11.308766 -15.596638 -9.594998 2.409206 -3.964811 4.606532 -0.976255 0.881003 -110.809310 -71.158471 115.005646 11.494708 -17.992463 -1.027792 -19.027833 -38.231012 9.904870 29.444686 85.913042 25.450927 0.427262 -16.081978 0.449244 -0.024406 0.496817 -0.032986 -15.187055 -50.046159 19.095930 172.685648 78.807237 168.533708 -1.602877 -17.021364 1.618985 -0.705568 -2.140507 -0.320263
-5.214834 55.226613 30.505333 176.181345 -28.115409 -10.365924 1.014132 14.243293 6.064197 0.345125 8.125509 2.504133 0.486537 10.134354 3.129262 0.348702 8.145178 2.520635 -0.391089 23.829491 0.407981 -0.510247 -0.034962 0.549543 0.711446 4.665940 -1.762431 -15.604747 -6.704214 4.484691 117.355664 -80.972284 -100.279115 9.965936 -11.277855 -15.566740 -9.594550 2.425864 -3.958497 4.590868 -0.994313 0.863217 -110.806758 -71.156100 115.016667 11.507276 -17.998246 -1.005177 -19.019845 -38.198447 9.909812 29.403905 85.904144 25.414555 0.428802 -16.067315 0.438266 -0.024599 0.501377 -0.029212 -15.147051 -50.016233 19.077669 172.668529 78.806746 168.531247 -1.607333 -17.020077 1.623450 -0.701958 -2.141937 -0.320122
-5.213388 55.225832 30.511947 176.181772 -28.144510 -10.371576 1.013089 14.246419 6.057648 0.347097 8.128420 2.501695 0.489342 10.137905 3.126599 0.348271 8.130867 2.499753 -0.371619 23.813537 0.424061 -0.498041 -0.075046 0.542595 0.717137 4.689295 -1.728612 -15.613987 -6.731084 4.494072 117.224903 -80.982322 -100.133238 9.940143 -11.288711 -15.538607 -9.603016 2.437368 -3.934566 4.588492 -0.991864 0.846951 -110.805199 -71.146128 115.021350 11.549900 -17.999729 -0.902543 -19.021931 -38.174717 9.913814 29.349985 85.899781 25.362342 0.434899 -16.047735 0.429831 -0.025288 0.504217 -0.023922 -15.121786 -49.991543 19.060883 172.702990 78.809828 168.575301 -1.605794 -17.022048 1.626013 -0.701022 -2.136862 -0.317188
-5.212128 55.226147 30.515570 176.194339 -28.190172 -10.380875 1.007341 14.268233 6.048561 0.349052 8.130823 2.499816 0.488733 10.146280 3.130371 0.350287 8.136846 2.501891 -0.371428 23.763089 0.409019 -0.488404 -0.124459 0.532251 0.722279 4.650158 -1.731182 -15.619552 -6.720478 4.501043 117.301874 -81.049502 -100.177384 9.937663 -11.276758 -15.519070 -9.607539 2.418125 -3.936491 4.589143 -0.977061 0.844270 -110.838382 -71.151745 115.065377 11.552999 -17.982795 -0.856379 -19.022455 -38.130003 9.907586 29.267255 85.896347 25.279455 0.440502 -16.036523 0.423678 -0.027246 0.504231 -0.022470 -15.111782 -49.941461 19.045311 172.756169 78.815610 168.625598 -1.602834 -17.033438 1.627329 -0.691427 -2.124735 -0.312163
-5.212320 55.223887 30.522806 176.203296 -28.208203 -10.381171 0.985826 14.235512 6.023974 0.357195 8.161847 2.506072 0.484557 10.146022 3.128464 0.355723 8.151569 2.505926 -0.368629 23.739505 0.404179 -0.486261 -0.218393 0.508916 0.731329 4.609863 -1.734816 -15.624280 -6.712768 4.503718 117.405316 -81.149621 -100.242422 9.941608 -11.262522 -15.508132 -9.608996 2.397166 -3.936090 4.590671 -0.962009 0.836725 -110.872268 -71.160018 115.098784 11.542394 -17.964807 -0.813662 -19.023017 -38.119729 9.899087 29.339613 85.891395 25.358052 0.438848 -16.025810 0.414624 -0.030786 0.504878 -0.022343 -15.107011 -49.922719 19.031319 172.799309 78.823512 168.664975 -1.602718 -17.043879 1.626639 -0.679268 -2.109055 -0.306127
-5.214358 55.220313 30.531348 176.221274 -28.211894 -10.375191 0.961989 14.228409 6.003817 0.351555 8.150210 2.499263 0.482883 10.141679 3.123260 0.346435 8.137791 2.493315 -0.355789 23.692102 0.397078 -0.480445 -0.264038 0.499296 0.759486 4.603866 -1.719579 -15.633199 -6.709844 4.505179 117.389842 -81.239342 -100.187762 9.931466 -11.252331 -15.506370 -9.595310 2.382519 -3.924339 4.595702 -0.935878 0.814556 -110.828080 -71.161880 115.067297 11.525494 -17.942161 -0.816990 -19.037386 -38.126529 9.885525 29.440770 85.888819 25.460990 0.437914 -16.016148 0.404453 -0.028934 0.508156 -0.020529 -15.111642 -49.917078 19.014770 172.843107 78.829245 168.699762 -1.627231 -17.073283 1.624669 -0.650665 -2.075938 -0.292283
-5.214339 55.218759 30.536910 176.234167 -28.236780 -10.378608 0.950227 14.240876 5.996405 0.343646 8.108952 2.484317 0.487787 10.171315 3.129915 0.346302 8.146069 2.494602 -0.365839 23.611409 0.373046 -0.477429 -0.311519 0.488652 0.772233 4.572746 -1.716023 -15.598084 -6.765611 4.494903 116.939569 -81.332740 -99.750681 9.945021 -11.239193 -15.515059 -9.592997 2.354370 -3.924767 4.591264 -0.966178 0.759016 -110.637413 -71.149560 114.882423 11.512360 -17.914703 -0.792786 -19.040645 -38.106534 9.880332 29.381703 85.886881 25.402155 0.440795 -16.006184 0.400820 -0.019650 0.512772 -0.018673 -15.111981 -49.890324 19.004561 172.869079 78.834045 168.719359 -1.636791 -17.080506 1.627411 -0.638861 -2.065134 -0.288457
-5.213250 55.217925 30.541745 176.248295 -28.264938 -10.389918 0.939617 14.209273 5.985396 0.341911 8.140822 2.489888 0.484548 10.173010 3.128042 0.350049 8.167853 2.502742 -0.380572 23.533769 0.348232 -0.479889 -0.380214 0.473244 0.784008 4.522932 -1.718391 -15.589172 -6.736559 4.486550 116.825077 -81.356672 -99.643400 9.923523 -11.241636 -15.513357 -9.592572 2.341140 -3.925963 4.590435 -0.989862 0.730112 -110.565524 -71.153240 114.825828 11.481943 -17.861064 -0.766162 -19.044150 -38.078977 9.880995 29.394224 85.882386 25.416629 0.438315 -15.997175 0.394299 -0.023430 0.513180 -0.016033 -15.125302 -49.862213 19.003257 172.859120 78.831774 168.704906 -1.641158 -17.075172 1.630033 -0.635829 -2.068461 -0.289786
-5.211815 55.217712 30.545820 176.265862 -28.294740 -10.406374 0.932525 14.207827 5.985274 0.338722 8.142113 2.488782 0.480603 10.174651 3.126593 0.347730 8.171609 2.501667 -0.378749 23.517647 0.346897 -0.490189 -0.496371 0.447594 0.831851 4.425349 -1.718248 -15.603171 -6.638781 4.470104 116.815292 -81.402443 -99.617865 9.922947 -11.229397 -15.530002 -9.587410 2.349353 -3.922428 4.590994 -1.016190 0.701055 -110.491992 -71.143002 114.759898 11.461811 -17.822481 -0.769994 -19.061131 -38.044938 9.889591 29.350979 85.875585 25.369043 0.438055 -15.988275 0.389666 -0.024963 0.513158 -0.015563 -15.142320 -49.830288 19.006353 172.854316 78.829776 168.695861 -1.645079 -17.073256 1.630291 -0.632195 -2.069163 -0.286874
-5.210764 55.217174 30.550599 176.273437 -28.316738 -10.418107 0.933660 14.194409 5.984757 0.335839 8.152490 2.491121 0.477661 10.165351 3.122125 0.339184 8.177349 2.501392 -0.383877 23.431524 0.323276 -0.488751 -0.544711 0.437348 0.864977 4.390014 -1.714802 -15.523327 -6.675490 4.477778 116.221724 -81.425534 -99.076919 9.951421 -11.233008 -15.558435 -9.581748 2.269714 -3.929332 4.598110 -0.959079 0.688938 -110.374354 -71.132111 114.665597 11.450441 -17.785712 -0.788781 -19.069860 -38.021100 9.899248 29.159009 85.873008 25.176666 0.449708 -15.980470 0.382563 -0.026218 0.516435 -0.013315 -15.159390 -49.808339 19.011486 172.827555 78.824851 168.662907 -1.635239 -17.066854 1.628915 -0.639495 -2.075276 -0.289196
-5.210492 55.217055 30.554362 176.282859 -28.339626 -10.427622 0.933297 14.178470 5.980435 0.331688 8.183158 2.499514 0.477663 10.131904 3.111685 0.334267 8.187407 2.501714 -0.389442 23.341062 0.299797 -0.487532 -0.589555 0.427535 0.890971 4.355780 -1.710303 -15.475522 -6.687486 4.483537 115.659503 -81.401940 -98.556401 9.968746 -11.223240 -15.584310 -9.572351 2.236222 -3.934647 4.592909 -0.920516 0.690061 -110.362783 -71.129827 114.673774 11.392243 -17.698262 -0.831326 -19.076000 -37.996832 9.903810 28.970868 85.872163 24.988377 0.457442 -15.973712 0.376735 -0.027786 0.518835 -0.011096 -15.173544 -49.782621 19.014845 172.811188 78.822317 168.639638 -1.642312 -17.066726 1.628582 -0.637044 -2.075809 -0.287053
-5.209019 55.218437 30.555821 176.295351 -28.373607 -10.446561 0.937775 14.168217 5.985492 0.324434 8.187869 2.497535 0.480640 10.120488 3.111205 0.332490 8.138020 2.486638 -0.388994 23.334186 0.300792 -0.487762 -0.653493 0.412788 0.910502 4.385596 -1.686639 -15.444424 -6.688070 4.490828 115.107512 -81.360523 -98.031358 9.965533 -11.214617 -15.611109 -9.562290 2.264454 -3.934515 4.576695 -0.876346 0.692277 -110.347819 -71.131365 114.677887 11.341667 -17.631819 -0.876251 -19.082014 -37.955586 9.911083 28.764755 85.869026 24.784524 0.465854 -15.967548 0.364165 -0.029294 0.520741 -0.005718 -15.185613 -49.744249 19.019611 172.786494 78.817599 168.614484 -1.648419 -17.067693 1.626981 -0.638451 -2.079352 -0.285407
